<svg width="505" height="816" viewBox="0 0 505 816" fill="none" xmlns="http://www.w3.org/2000/svg">
<path d="M279.406 26.5722C258.209 15.3802 204.873 -6.26827 182.432 1.73556C159.991 9.7394 160.375 8.99605 149.611 31.9883C140.984 50.4159 176.002 81.0449 169.152 115.473C165.522 133.72 157.601 153.286 168.361 168.463C176.627 180.122 187.396 189.709 199.933 196.329L239.669 111.45L279.406 26.5722Z" fill="#E7BE19"/>
<path d="M222.745 801.421C236.02 806.587 269.162 816.031 282.423 810.67C295.683 805.31 295.481 805.732 301.076 792.714C304.253 785.323 293.933 775.563 288.627 763.717C280.388 745.322 289.134 719.111 271.707 708.984C269.279 707.573 266.723 706.34 264.057 705.303L243.401 753.362L222.745 801.421Z" fill="#E7BE19"/>
<path d="M287.09 30.4009C407.385 81.4629 463.509 220.375 412.447 340.67L217.813 799.197C97.5185 748.135 41.3943 609.223 92.4564 488.929L287.09 30.4009Z" fill="#E7BE19"/>
<path d="M208.955 201.498L210.905 197.148C219.605 197.248 224.755 195.198 226.355 190.998C227.055 188.998 227.755 185.248 228.455 179.748C229.155 174.248 229.805 167.048 230.405 158.148C231.105 148.048 231.555 139.348 231.755 132.048C232.055 124.748 232.205 118.948 232.205 114.648C232.205 110.648 231.805 107.798 231.005 106.098C230.205 104.398 227.855 103.548 223.955 103.548C222.155 103.548 220.105 103.848 217.805 104.448L220.205 99.9481C223.105 100.348 229.855 100.798 240.455 101.298C241.855 101.298 243.955 101.198 246.755 100.998C249.555 100.798 252.505 100.598 255.605 100.398C258.805 100.198 261.555 100.098 263.855 100.098C272.555 100.098 279.455 101.748 284.555 105.048C289.755 108.248 292.355 113.998 292.355 122.298C292.355 129.298 290.505 135.398 286.805 140.598C283.205 145.798 278.455 149.848 272.555 152.748C266.755 155.548 260.505 156.948 253.805 156.948C251.705 156.948 249.505 156.798 247.205 156.498L249.605 152.748C255.205 152.948 260.305 151.998 264.905 149.898C269.605 147.698 273.355 144.548 276.155 140.448C279.055 136.348 280.505 131.548 280.505 126.048C280.505 121.648 279.455 117.948 277.355 114.948C275.355 111.948 272.655 109.698 269.255 108.198C265.855 106.598 262.205 105.798 258.305 105.798C255.905 105.798 253.505 106.098 251.105 106.698C249.805 106.898 248.805 107.348 248.105 108.048C247.405 108.748 246.905 109.898 246.605 111.498C246.305 113.198 245.955 115.698 245.555 118.998C245.155 122.298 244.805 125.848 244.505 129.648C244.205 133.348 243.905 136.848 243.605 140.148C243.205 145.648 242.805 151.248 242.405 156.948C242.005 162.548 241.655 167.798 241.355 172.698C241.155 177.598 241.055 181.798 241.055 185.298C241.055 187.198 241.105 188.848 241.205 190.248C241.305 191.648 241.455 192.698 241.655 193.398C241.955 193.998 242.905 194.598 244.505 195.198C246.105 195.698 247.905 196.098 249.905 196.398C252.005 196.698 253.955 196.898 255.755 196.998C257.655 197.098 259.055 197.098 259.955 196.998L257.705 201.348C255.205 201.148 253.105 200.948 251.405 200.748C249.705 200.648 248.105 200.548 246.605 200.448C245.205 200.248 243.555 200.148 241.655 200.148C239.755 200.048 237.305 199.998 234.305 199.998C232.205 199.998 229.455 200.098 226.055 200.298C222.755 200.498 219.505 200.698 216.305 200.898C213.105 201.198 210.655 201.398 208.955 201.498ZM278.224 382.248C277.924 382.248 277.574 382.248 277.174 382.248C276.874 382.248 276.524 382.198 276.124 382.098C264.924 381.298 256.174 380.698 249.874 380.298C243.574 379.898 239.724 379.698 238.324 379.698C236.824 379.698 235.374 379.748 233.974 379.848C232.574 379.848 231.274 379.898 230.074 379.998C228.774 380.098 226.174 380.298 222.274 380.598C218.374 380.798 213.074 381.198 206.374 381.798L208.624 377.148C210.424 377.248 212.524 377.098 214.924 376.698C217.424 376.298 219.674 375.598 221.674 374.598C223.774 373.598 225.124 372.248 225.724 370.548C226.324 368.548 226.874 364.948 227.374 359.748C227.974 354.548 228.574 347.698 229.174 339.198L231.124 311.298C231.324 309.098 231.424 307.048 231.424 305.148C231.424 303.148 231.424 301.348 231.424 299.748C231.424 291.748 230.874 287.198 229.774 286.098C228.274 284.298 225.424 283.398 221.224 283.398C220.524 283.398 219.824 283.448 219.124 283.548C218.424 283.548 217.674 283.598 216.874 283.698L219.124 279.498C221.724 279.898 224.724 280.248 228.124 280.548C231.524 280.848 235.374 280.948 239.674 280.848L282.274 280.398C283.574 280.498 284.224 281.298 284.224 282.798C284.224 283.298 284.024 284.298 283.624 285.798C283.324 287.198 282.674 289.348 281.674 292.248C281.074 294.348 280.524 296.348 280.024 298.248C279.624 300.048 279.324 301.498 279.124 302.598L274.924 301.548C277.024 296.748 278.074 293.748 278.074 292.548C278.074 290.848 277.274 289.648 275.674 288.948C274.074 288.148 272.074 287.648 269.674 287.448C267.274 287.248 264.874 287.148 262.474 287.148C258.774 287.148 255.674 287.198 253.174 287.298C250.674 287.298 248.624 287.448 247.024 287.748C246.124 290.548 245.274 295.148 244.474 301.548C243.774 307.948 243.074 315.898 242.374 325.398L273.574 325.098C274.274 325.098 274.824 325.298 275.224 325.698C275.624 326.098 275.724 326.698 275.524 327.498C275.424 327.898 275.224 328.648 274.924 329.748C274.624 330.848 274.374 331.798 274.174 332.598C273.974 333.798 273.774 335.048 273.574 336.348C273.374 337.648 273.274 339.048 273.274 340.548L269.674 341.448L269.074 340.698C269.474 339.398 269.674 338.098 269.674 336.798C269.674 334.998 269.074 333.698 267.874 332.898C266.674 332.098 264.674 331.648 261.874 331.548C256.174 331.248 251.374 331.098 247.474 331.098C246.474 331.098 245.474 331.098 244.474 331.098C243.574 331.098 242.724 331.148 241.924 331.248C241.724 334.448 241.524 338.048 241.324 342.048C241.124 345.948 240.924 349.848 240.724 353.748C240.624 357.548 240.574 360.898 240.574 363.798C240.574 365.398 240.574 366.798 240.574 367.998C240.674 369.098 240.774 369.948 240.874 370.548C240.974 372.248 241.724 373.348 243.124 373.848C243.724 374.048 244.824 374.298 246.424 374.598C248.124 374.898 250.074 375.198 252.274 375.498C254.374 375.798 256.774 375.948 259.474 375.948C269.374 375.948 276.024 374.798 279.424 372.498C280.224 371.898 281.074 371.098 281.974 370.098C282.974 368.998 284.024 367.648 285.124 366.048C286.224 364.348 287.074 362.798 287.674 361.398C288.374 359.998 288.674 358.948 288.574 358.248L292.024 359.598C290.824 361.798 289.824 364.148 289.024 366.648C288.224 369.048 287.524 371.598 286.924 374.298C286.624 375.598 286.224 376.798 285.724 377.898C285.324 378.998 284.824 379.798 284.224 380.298C282.924 381.598 280.924 382.248 278.224 382.248ZM245.104 561.798C244.204 561.398 241.704 560.998 237.604 560.598C233.604 560.098 228.404 559.848 222.004 559.848C217.504 559.848 213.204 560.098 209.104 560.598C205.004 560.998 200.804 561.348 196.504 561.648L198.454 557.148C199.554 557.448 200.754 557.598 202.054 557.598C204.654 557.598 207.354 556.998 210.154 555.798C213.054 554.498 214.854 552.748 215.554 550.548C216.954 545.348 218.254 534.498 219.454 517.998C220.054 510.198 220.504 503.848 220.804 498.948C221.104 494.048 221.304 489.848 221.404 486.348C221.504 482.848 221.554 479.498 221.554 476.298C221.554 471.498 221.154 468.148 220.354 466.248C219.654 464.248 217.254 463.248 213.154 463.248C211.354 463.248 209.254 463.548 206.854 464.148L209.404 459.648C210.804 459.848 213.354 460.148 217.054 460.548C220.754 460.848 224.954 460.998 229.654 460.998C233.854 460.998 237.854 460.798 241.654 460.398C245.554 459.998 249.204 459.648 252.604 459.348L249.004 463.398C248.604 463.298 248.204 463.248 247.804 463.248C247.404 463.248 247.004 463.248 246.604 463.248C244.904 463.248 243.254 463.548 241.654 464.148C240.054 464.648 238.704 465.448 237.604 466.548C236.804 467.948 236.054 470.548 235.354 474.348C234.754 478.048 234.154 483.648 233.554 491.148C232.954 498.548 232.204 508.548 231.304 521.148C231.204 523.548 231.054 526.448 230.854 529.848C230.754 533.248 230.704 536.548 230.704 539.748C230.704 542.048 230.754 544.198 230.854 546.198C230.954 548.098 231.054 549.648 231.154 550.848C231.254 552.348 231.954 553.598 233.254 554.598C234.654 555.498 236.304 556.198 238.204 556.698C240.204 557.098 242.104 557.298 243.904 557.298C245.504 557.298 246.804 557.148 247.804 556.848L245.104 561.798ZM293.404 563.448C283.404 563.448 275.404 559.498 269.404 551.598C264.004 544.498 259.554 538.648 256.054 534.048C252.654 529.448 249.904 525.748 247.804 522.948C245.704 520.148 244.004 517.948 242.704 516.348C241.504 514.748 240.504 513.398 239.704 512.298C238.904 511.198 238.004 510.048 237.004 508.848L237.154 507.948C262.554 485.048 275.254 471.998 275.254 468.798C275.254 465.498 272.404 463.848 266.704 463.848C265.704 463.848 264.754 463.898 263.854 463.998C262.954 464.098 262.104 464.198 261.304 464.298L264.904 460.398C265.204 460.398 266.454 460.548 268.654 460.848C270.954 461.048 273.504 461.298 276.304 461.598C279.204 461.798 281.604 461.898 283.504 461.898C284.404 461.898 285.904 461.848 288.004 461.748C290.104 461.548 292.354 461.398 294.754 461.298C297.254 461.098 299.504 460.898 301.504 460.698C303.604 460.498 305.054 460.348 305.854 460.248L303.454 463.698C300.354 463.698 296.704 464.898 292.504 467.298C288.304 469.698 283.804 472.898 279.004 476.898C274.204 480.798 269.204 485.198 264.004 490.098C258.804 494.898 253.604 499.798 248.404 504.798C253.404 510.698 257.554 515.748 260.854 519.948C264.154 524.148 267.154 527.898 269.854 531.198C272.554 534.398 275.454 537.498 278.554 540.498C281.754 543.398 285.704 546.498 290.404 549.798C293.604 552.098 296.954 553.998 300.454 555.498C303.954 556.898 307.104 557.598 309.904 557.598C310.404 557.598 310.854 557.598 311.254 557.598C311.654 557.498 312.054 557.398 312.454 557.298L310.354 561.198C303.654 562.698 298.004 563.448 293.404 563.448ZM247.097 743.148C236.797 743.148 227.897 741.298 220.397 737.598C212.997 733.798 207.297 728.398 203.297 721.398C199.297 714.298 197.297 705.798 197.297 695.898C197.297 677.398 202.147 663.398 211.847 653.898C221.647 644.398 235.797 639.648 254.297 639.648C269.797 639.648 281.997 643.248 290.897 650.448C299.897 657.648 304.397 668.698 304.397 683.598C304.397 702.598 299.597 717.298 289.997 727.698C280.497 737.998 266.197 743.148 247.097 743.148ZM248.447 737.448C257.147 737.448 264.597 735.248 270.797 730.848C277.097 726.348 281.897 720.348 285.197 712.848C288.597 705.348 290.297 697.098 290.297 688.098C290.297 680.198 288.847 673.048 285.947 666.648C283.047 660.148 278.847 654.998 273.347 651.198C267.947 647.298 261.397 645.348 253.697 645.348C244.997 645.348 237.447 647.398 231.047 651.498C224.747 655.598 219.897 661.198 216.497 668.298C213.097 675.398 211.397 683.448 211.397 692.448C211.397 701.048 212.897 708.748 215.897 715.548C218.897 722.348 223.147 727.698 228.647 731.598C234.247 735.498 240.847 737.448 248.447 737.448Z" fill="black"/>
</svg>
